PathFileType	4	(X/Y/Z)	C:/Users/opensim2020/Desktop/walking_exp_matlab/subject06_walking19_straight_03.trc																																																																																																																																																	
DataRate	CameraRate	NumFrames	NumMarkers	Units	OrigDataRate	OrigDataStartFrame	OrigNumFrames																																																																																																																																													
100	100	4	49	mm	100	3401	358																																																																																																																																													
Frame#	Time	LFHD			RFHD			LBHD			RBHD			C7			T10			CLAV			STRN			RBAK			LSHO			LUPA			LELB			LFRM			LWRA			LWRB			LFIN			RSHO			RUPA			RELB			RFRM			RWRA			RWRB			RFIN			LASI			RASI			LPSI			RPSI			LTHI			LKNE			LTIB			LANK			LHEE			LTOE			RTHI			RKNE			RTIB			RANK			RHEE			RTOE			*39			*40			*41			*42			*43			*44			*45			*46			*47			*48		
		X1	Y1	Z1	X2	Y2	Z2	X3	Y3	Z3	X4	Y4	Z4	X5	Y5	Z5	X6	Y6	Z6	X7	Y7	Z7	X8	Y8	Z8	X9	Y9	Z9	X10	Y10	Z10	X11	Y11	Z11	X12	Y12	Z12	X13	Y13	Z13	X14	Y14	Z14	X15	Y15	Z15	X16	Y16	Z16	X17	Y17	Z17	X18	Y18	Z18	X19	Y19	Z19	X20	Y20	Z20	X21	Y21	Z21	X22	Y22	Z22	X23	Y23	Z23	X24	Y24	Z24	X25	Y25	Z25	X26	Y26	Z26	X27	Y27	Z27	X28	Y28	Z28	X29	Y29	Z29	X30	Y30	Z30	X31	Y31	Z31	X32	Y32	Z32	X33	Y33	Z33	X34	Y34	Z34	X35	Y35	Z35	X36	Y36	Z36	X37	Y37	Z37	X38	Y38	Z38	X39	Y39	Z39	X40	Y40	Z40	X41	Y41	Z41	X42	Y42	Z42	X43	Y43	Z43	X44	Y44	Z44	X45	Y45	Z45	X46	Y46	Z46	X47	Y47	Z47	X48	Y48	Z48	X49	Y49	Z49
																																																																																																																																																				
135	1.34	-291.54355	1664.17749	1409.94775	-283.16898	1654.90601	1541.36658	-424.77338	1610.84534	1418.84546	-414.96915	1606.448	1547.98401	-427.46448	1457.38477	1472.68628	-470.62161	1129.09509	1477.54919	-320.72406	1375.6499	1471.17883	-287.89377	1199.1095	1464.2832	-503.71536	1288.60706	1553.97937	-373.99265	1409.63379	1308.96545	-398.88995	1207.94849	1237.14465	-415.16574	1096.93713	1225.38367	-399.32486	948.15656	1198.18164	-337.82047	831.38715	1229.95776	-402.35132	828.74011	1199.94824	-362.92282	747.21332	1191.86304	-359.56122	1408.05579	1632.4845	-396.1095	1211.15295	1723.91357	-382.10864	1090.41162	1735.19482	-336.02487	980.06097	1742.33618	-240.18414	870.30084	1694.021	-288.04803	852.13879	1737.32581	-229.40376	792.05286	1730.86914	-296.79819	967.26459	1365.75964	-300.75183	967.66718	1586.06213	-455.71451	994.33148	1389.74744	-452.38553	998.09729	1558.69385	-303.10788	661.14465	1288.58313	-242.90257	509.09183	1311.22412	-228.18434	256.01602	1312.85022	-189.37776	85.81756	1346.03076	-220.17918	62.99319	1395.7771	-43.97036	82.19953	1336.30518	-374.98123	634.62128	1623.90222	-386.35602	509.04855	1599.07434	-482.10944	257.17764	1592.58545	-535.82288	79.48319	1541.52783	-583.6543	60.47954	1501.63379	-386.97873	37.9	1518.35706	-387.62177	1703.89929	1474.90027	NaN	NaN	NaN	NaN	NaN	NaN	NaN	NaN	NaN	NaN	NaN	NaN	NaN	NaN	NaN	NaN	NaN	NaN	NaN	NaN	NaN	NaN	NaN	NaN	NaN	NaN	NaN
136	1.35	-286.285	1663.59558	1409.41931	-277.98926	1654.37012	1540.7854	-419.45392	1610.30383	1418.1571	-409.97485	1606.00671	1547.49023	-422.38168	1456.8634	1472.1084	-465.34177	1128.58008	1476.5874	-315.39026	1375.12573	1470.62158	-282.38165	1198.63123	1463.99854	-498.60867	1288.08899	1553.3197	-368.49161	1409.01978	1308.38953	-393.94876	1207.31421	1237.03467	-411.14487	1096.47729	1225.12988	-396.07468	947.62012	1198.02844	-334.56976	830.64343	1229.73743	-399.79233	828.24536	1200.02905	-360.78867	746.46918	1191.9939	-354.4881	1407.61182	1631.92578	-391.12204	1210.6626	1723.32422	-376.81607	1089.92444	1734.6991	-331.11093	979.5462	1741.89734	-234.90628	869.75946	1693.96118	-282.97217	851.59955	1737.19092	-224.32571	791.51837	1730.901	-290.85553	966.42804	1365.55188	-295.80994	967.14667	1585.86169	-449.82208	993.75494	1388.54736	-447.45059	997.69739	1557.62512	-297.86691	660.16302	1287.61902	-237.78215	508.19196	1310.57739	-218.01091	255.38737	1312.6001	-175.80046	85.99547	1345.64233	-205.78568	63.05993	1395.4491	-29.69212	84.29954	1335.94568	-371.30234	634.44708	1623.54321	-383.15594	508.86496	1598.84375	-480.66345	257.55307	1592.2135	-535.5296	80.16008	1541.1864	-583.38165	61.39624	1501.17407	-387.09061	38.04686	1518.50208	-382.42822	1703.41052	1474.2334	NaN	NaN	NaN	NaN	NaN	NaN	NaN	NaN	NaN	NaN	NaN	NaN	NaN	NaN	NaN	NaN	NaN	NaN	NaN	NaN	NaN	NaN	NaN	NaN	NaN	NaN	NaN
137	1.36	-280.8873	1663.0238	1408.75745	-272.789	1653.85205	1540.19226	-414.15082	1609.71558	1417.44568	-404.76114	1605.42822	1546.76294	-416.85324	1456.16504	1471.31995	-459.84064	1127.89636	1475.49365	-309.93839	1374.67542	1470.18896	-276.7854	1198.11218	1463.5957	-493.35532	1287.52954	1552.54932	-362.97766	1408.3855	1307.71533	-389.30121	1206.92822	1236.32471	-407.01685	1096.06409	1224.89307	-392.73828	947.03162	1197.92603	-331.59552	829.93298	1229.51477	-397.1521	827.79071	1200.00916	-358.37891	745.71051	1192.06165	-349.34424	1407.10254	1631.35754	-386.08582	1210.1571	1722.71411	-371.63248	1089.42773	1734.17493	-325.99567	979.00073	1741.53955	-229.66609	869.13702	1693.80688	-277.96259	851.00885	1736.94861	-219.29758	790.79169	1730.85278	-285.08224	965.49005	1365.25952	-290.7688	966.67322	1585.60315	-443.746	993.04828	1387.35242	-442.41901	997.28021	1556.40735	-292.25821	659.07922	1286.74341	-232.63831	507.23288	1310.30859	-208.36026	254.91226	1312.28906	-162.552	86.34278	1344.94067	-192.05637	63.07124	1394.8374	-16.05489	86.57066	1335.30078	-367.64105	634.30786	1623.09497	-380.12924	508.69119	1598.62415	-479.37192	257.95303	1591.91626	-535.24231	80.85926	1540.83044	-583.09589	62.32989	1500.67517	-386.98029	37.96419	1518.26892	-377.15152	1702.82959	1473.48108	NaN	NaN	NaN	NaN	NaN	NaN	NaN	NaN	NaN	NaN	NaN	NaN	NaN	NaN	NaN	NaN	NaN	NaN	NaN	NaN	NaN	NaN	NaN	NaN	NaN	NaN	NaN
138	1.37	-275.5231	1662.48767	1408.10864	-267.60617	1653.34412	1539.56091	-408.7157	1609.08215	1416.58813	-399.45288	1604.88184	1545.78748	-411.59735	1455.61292	1470.59937	-454.15576	1127.1311	1474.23438	-304.47418	1374.11133	1469.51111	-271.12048	1197.60425	1463.10754	-487.91724	1286.85291	1551.62781	-357.34045	1407.77014	1307.02344	-384.28104	1206.3429	1235.84863	-402.63541	1095.58093	1224.59155	-389.13812	946.5694	1197.80371	-328.93454	829.23395	1229.42102	-393.87637	827.16016	1200.08899	-355.7179	744.96277	1192.1615	-344.20093	1406.57227	1630.73389	-381.00021	1209.59021	1722.00049	-366.45111	1088.84009	1733.64941	-320.73669	978.41193	1741.25854	-224.71446	868.34113	1693.79041	-272.95773	850.3371	1736.75391	-214.41742	790.2085	1730.91699	-279.03268	964.61975	1364.77283	-285.6759	966.11786	1585.10193	-437.83713	992.53088	1385.95337	-437.27484	996.97888	1555.09863	-287.40836	658.00317	1286.19104	-227.4113	506.41873	1310.24402	-199.16492	254.40044	1311.94604	-150.05563	86.62961	1344.24084	-179.26408	62.96595	1394.01306	-3.48525	88.89473	1334.55225	-363.97363	634.16077	1622.6189	-377.0773	508.55768	1598.40405	-478.16757	258.38254	1591.60046	-534.93774	81.51431	1540.52905	-582.85077	63.2341	1500.27295	-386.99219	38.05341	1518.39941	-371.90323	1702.26611	1472.69324	NaN	NaN	NaN	NaN	NaN	NaN	NaN	NaN	NaN	NaN	NaN	NaN	NaN	NaN	NaN	NaN	NaN	NaN	NaN	NaN	NaN	NaN	NaN	NaN	NaN	NaN	NaN
